<svg width="146" height="145" viewBox="0 0 146 145" fill="none" xmlns="http://www.w3.org/2000/svg">
<path id="Vector" d="M142.268 66.0411L78.9586 2.73396C75.3133 -0.91132 69.4004 -0.91132 65.7503 2.73396L52.606 15.883L69.282 32.559C73.1581 31.25 77.6022 32.1282 80.6913 35.2172C83.7968 38.3252 84.6679 42.8072 83.3258 46.6975L99.3982 62.7687C103.288 61.4277 107.773 62.2953 110.878 65.4056C115.22 69.7444 115.22 76.777 110.878 81.1182C109.062 82.934 106.673 84.0647 104.117 84.3179C101.562 84.5711 98.997 83.9312 96.8598 82.507C94.7226 81.0829 93.1447 78.9623 92.3944 76.5061C91.6441 74.0499 91.7677 71.4096 92.7444 69.0343L77.7525 54.0437V93.4908C78.8389 94.027 79.831 94.7361 80.6901 95.5904C85.0301 99.9293 85.0301 106.962 80.6901 111.308C76.3501 115.645 69.314 115.645 64.9775 111.308C60.6375 106.962 60.6375 99.9293 64.9775 95.5904C66.0182 94.5489 67.2557 93.725 68.618 93.1665V53.3549C67.2546 52.7981 66.0166 51.9734 64.9775 50.9298C61.6908 47.6443 60.9002 42.8202 62.5868 38.7832L46.1463 22.3404L2.7343 65.7488C0.983485 67.5009 0 69.8766 0 72.3535C0 74.8305 0.983485 77.2061 2.7343 78.9582L66.0474 142.265C67.799 144.016 70.1743 145 72.6509 145C75.1276 145 77.5029 144.016 79.2544 142.265L142.268 79.2517C144.02 77.4999 145.004 75.1239 145.004 72.6464C145.004 70.169 144.02 67.793 142.268 66.0411Z" fill="#F03C2E"/>
</svg>
