<svg width="128" height="146" viewBox="0 0 128 146" fill="none" xmlns="http://www.w3.org/2000/svg">
<g id="Guides to delete">
<g id="Group">
<path id="Vector" d="M11.6541 130.723L0 0H128L116.332 130.733L63.9689 145.249L11.6541 130.723Z" fill="#E34E26"/>
<path id="Vector_2" d="M64 10.6852V134.145L106.342 122.408L116.318 10.6852H64Z" fill="#EF662A"/>
<path id="Vector_3" d="M23.8444 26.7197L28.1661 75.204H83.7367L81.8718 95.9998L63.9793 100.837L46.1207 96.0068L44.9267 82.654H28.8332L31.1345 108.394L63.9755 117.515L96.858 108.394L101.266 59.1729H42.83L41.3628 42.7542H102.67H102.719L104.156 26.7197H23.8444Z" fill="white"/>
<g id="Group_2">
<path id="Vector_4" d="M64 26.7197H23.8444L28.1661 75.204H64V59.1729H42.83L41.3628 42.7542H64V26.7197Z" fill="#EBEBEB"/>
<path id="Vector_5" d="M64 100.83L63.9793 100.837L46.1207 96.0068L44.9267 82.6539H28.8332L31.1345 108.394L63.9755 117.515L64 117.509V100.83Z" fill="#EBEBEB"/>
</g>
</g>
</g>
</svg>
