<svg width="128" height="145" viewBox="0 0 128 145" fill="none" xmlns="http://www.w3.org/2000/svg">
<g id="Group 4">
<g id="g5193">
<path id="path5113" d="M11.8428 130.371L0 0L127.584 0.049759L115.841 130.271L63.6925 145L11.8428 130.371ZM106.237 123.255L116.139 11.594H63.8916L64.2896 134.749L106.237 123.255ZM59.0151 27.965H46.3264L46.1771 94.7924L21.546 88.0748L21.5957 103.351L59.0151 113.452V27.965Z" fill="#D4B830"/>
<path id="path5157" opacity="0.986" d="M21.5957 103.351L21.546 88.0748C21.546 88.0748 37.2701 92.5034 46.1771 94.7924L46.3264 28.0147H59.0151V113.452L21.5957 103.351Z" fill="#EBEBEB" fill-opacity="0.9216"/>
<path id="path5117" d="M63.8916 11.5443H116.139L106.237 123.205L63.8916 134.7V11.5443ZM103.55 104.496L106.984 62.7471L81.606 65.5834V43.291L108.675 43.1915L109.77 27.965L68.9173 28.164L69.4647 83.5964L94.1455 79.3669L93.7972 91.7073L68.9173 98.3253L69.1661 113.452L103.55 104.496Z" fill="#FDD83C"/>
</g>
</g>
</svg>
