<svg width="107" height="145" viewBox="0 0 107 145" fill="none" xmlns="http://www.w3.org/2000/svg">
<g id="Group 2">
<path id="Vector" d="M34.5636 112.1C34.5636 112.1 28.9901 115.489 38.4378 116.459C49.8113 117.909 55.8697 117.669 68.4575 115.249C70.9875 116.798 73.6631 118.096 76.4462 119.123C48.1257 131.231 12.2833 118.398 34.5591 112.1H34.5636ZM30.9386 96.3628C30.9386 96.3628 24.8848 100.962 34.328 101.936C46.6757 103.146 56.359 103.386 73.0704 100.001C74.6956 101.65 76.6855 102.893 78.8795 103.631C44.7408 113.799 6.48779 104.601 30.9386 96.3673V96.3628ZM97.7613 123.958C97.7613 123.958 101.876 127.348 93.1621 130.012C76.9401 134.861 25.1295 136.311 10.6022 130.012C5.51809 127.837 15.2014 124.688 18.3054 124.203C21.4546 123.478 23.1538 123.478 23.1538 123.478C17.5804 119.604 -13.8894 131.467 7.17654 134.851C65.041 144.295 112.737 130.737 97.7251 123.958H97.7613ZM37.1827 79.8961C37.1827 79.8961 10.7925 86.1946 27.7395 88.3696C35.0031 89.3393 49.2857 89.0946 62.6031 88.1295C73.4963 87.1598 84.3986 85.2294 84.3986 85.2294C84.3986 85.2294 80.5243 86.9241 77.86 88.6188C50.9895 95.6423 -0.585538 92.4931 14.1864 85.2294C26.7743 79.1756 37.1872 79.9052 37.1872 79.9052L37.1827 79.8961ZM84.3986 106.286C111.514 92.2393 98.9259 78.6908 90.2077 80.381C88.0327 80.8658 87.0584 81.3507 87.0584 81.3507C87.0584 81.3507 87.7834 79.9007 89.4781 79.4158C106.67 73.362 120.227 97.5726 83.9047 107.011C83.9047 107.011 84.1448 106.771 84.3895 106.286H84.3986ZM39.8561 144.539C66.0016 146.234 105.954 143.57 106.919 131.217C106.919 131.217 104.984 136.066 85.3728 139.691C63.097 143.805 35.497 143.316 19.2751 140.661C19.2751 140.661 22.6644 143.561 39.8561 144.535V144.539Z" fill="#4E7896"/>
<path id="Vector_2" d="M67.9772 0C67.9772 0 82.9893 15.2523 53.6946 38.253C30.2089 56.8947 48.3703 67.5478 53.6946 79.6553C39.8923 67.3076 29.9688 56.4099 36.7476 46.2462C46.6711 31.2296 74.0309 24.0112 67.9772 0ZM60.274 69.4872C67.2975 77.4758 58.3391 84.7394 58.3391 84.7394C58.3391 84.7394 76.2558 75.5409 68.0225 64.1584C60.5187 53.2652 54.7005 47.9364 86.1793 29.7796C86.1793 29.7796 36.5482 42.1273 60.274 69.4872Z" fill="#F58219"/>
</g>
</svg>
