<svg width="162" height="182" viewBox="0 0 162 182" fill="none" xmlns="http://www.w3.org/2000/svg">
<g id="Group">
<path id="Vector" d="M80.7588 182C78.2508 182 75.91 181.331 73.7363 180.161L51.4984 166.952C48.1543 165.113 49.8264 164.444 50.8296 164.109C55.3441 162.605 56.1801 162.27 60.8617 159.595C61.3633 159.26 62.0322 159.428 62.5338 159.762L79.5884 169.961C80.2572 170.296 81.0933 170.296 81.5949 169.961L148.309 131.338C148.977 131.003 149.312 130.334 149.312 129.498V52.418C149.312 51.582 148.977 50.9132 148.309 50.5788L81.5949 12.1222C80.926 11.7878 80.09 11.7878 79.5884 12.1222L12.8746 50.5788C12.2058 50.9132 11.8714 51.7492 11.8714 52.418V129.498C11.8714 130.167 12.2058 131.003 12.8746 131.338L31.0997 141.871C40.9646 146.887 47.1511 141.035 47.1511 135.183V59.1061C47.1511 58.1029 47.9871 57.0997 49.1576 57.0997H57.6849C58.6881 57.0997 59.6913 57.9357 59.6913 59.1061V135.183C59.6913 148.392 52.5016 156.084 39.9614 156.084C36.1158 156.084 33.1061 156.084 24.5788 151.904L7.02251 141.871C2.67524 139.363 0 134.682 0 129.666V52.5852C0 47.5691 2.67524 42.8875 7.02251 40.3794L73.7363 1.75563C77.9164 -0.585209 83.6013 -0.585209 87.7813 1.75563L154.495 40.3794C158.842 42.8875 161.518 47.5691 161.518 52.5852V129.666C161.518 134.682 158.842 139.363 154.495 141.871L87.7813 180.495C85.6077 181.498 83.0997 182 80.7588 182ZM101.325 128.997C72.0643 128.997 66.045 115.621 66.045 104.251C66.045 103.248 66.881 102.244 68.0514 102.244H76.746C77.7492 102.244 78.5852 102.913 78.5852 103.916C79.9228 112.778 83.7685 117.125 101.492 117.125C115.537 117.125 121.556 113.949 121.556 106.424C121.556 102.077 119.884 98.9003 97.9807 96.7267C79.7556 94.8875 68.3859 90.8746 68.3859 76.328C68.3859 62.7846 79.7556 54.7588 98.8167 54.7588C120.219 54.7588 130.752 62.1158 132.09 78.1672C132.09 78.6688 131.923 79.1704 131.588 79.672C131.254 80.0064 130.752 80.3408 130.251 80.3408H121.556C120.72 80.3408 119.884 79.672 119.717 78.836C117.711 69.6399 112.527 66.6302 98.8167 66.6302C83.4341 66.6302 81.5949 71.9807 81.5949 75.9936C81.5949 80.8424 83.7685 82.3473 104.502 85.0225C125.068 87.6978 134.765 91.5434 134.765 105.923C134.598 120.637 122.559 128.997 101.325 128.997Z" fill="#539E43"/>
</g>
</svg>
