<svg width="205" height="183" viewBox="0 0 205 183" fill="none" xmlns="http://www.w3.org/2000/svg">
<g id="Group 3">
<g id="Group">
<path id="Vector" d="M205 91.3015C205 77.7212 187.993 64.8512 161.919 56.8702C167.936 30.2945 165.262 9.15104 153.478 2.38178C150.762 0.793924 147.587 0.0417849 144.118 0.0417849V9.35997C146.041 9.35997 147.587 9.73604 148.882 10.4464C154.565 13.7057 157.03 26.116 155.108 42.0781C154.648 46.0059 153.896 50.1427 152.977 54.363C144.787 52.3573 135.845 50.8112 126.443 49.8084C120.802 42.0781 114.952 35.0581 109.06 28.9156C122.682 16.2546 135.469 9.31818 144.16 9.31818V0C132.669 0 117.626 8.18997 102.416 22.3971C87.2065 8.27354 72.1637 0.167143 60.6726 0.167143V9.48532C69.3223 9.48532 82.1504 16.3799 95.7725 28.9574C89.9225 35.0999 84.0726 42.0781 78.5151 49.8084C69.0716 50.8112 60.1294 52.3573 51.9395 54.4048C50.9784 50.2262 50.268 46.173 49.7666 42.287C47.8027 26.3249 50.2263 13.9146 55.8673 10.6135C57.1209 9.86139 58.7505 9.52711 60.6726 9.52711V0.208928C57.1627 0.208928 53.987 0.961067 51.2291 2.54892C39.4874 9.31818 36.8549 30.4199 42.9138 56.9119C16.9232 64.9348 0 77.7629 0 91.3015C0 104.882 17.0067 117.752 43.0809 125.733C37.0638 152.308 39.7381 173.452 51.5216 180.221C54.2377 181.809 57.4134 182.561 60.9234 182.561C72.4144 182.561 87.4572 174.371 102.667 160.164C117.877 174.288 132.92 182.394 144.411 182.394C147.921 182.394 151.097 181.642 153.854 180.054C165.596 173.285 168.229 152.183 162.17 125.691C188.077 117.71 205 104.84 205 91.3015ZM150.595 63.4305C149.049 68.8208 147.127 74.3783 144.954 79.9358C143.241 76.5929 141.444 73.2501 139.48 69.9072C137.558 66.5644 135.511 63.3051 133.463 60.1294C139.397 61.0069 145.121 62.0933 150.595 63.4305ZM131.457 107.932C128.198 113.573 124.855 118.922 121.387 123.894C115.161 124.437 108.851 124.73 102.5 124.73C96.1904 124.73 89.8808 124.437 83.6965 123.936C80.2283 118.964 76.8437 113.657 73.5844 108.057C70.4087 102.584 67.5255 97.0261 64.893 91.4268C67.4837 85.8275 70.4087 80.2283 73.5426 74.7544C76.8019 69.1133 80.1447 63.7648 83.6129 58.7923C89.839 58.2491 96.1486 57.9566 102.5 57.9566C108.81 57.9566 115.119 58.2491 121.304 58.7505C124.772 63.723 128.156 69.0298 131.416 74.629C134.591 80.1029 137.475 85.6604 140.107 91.2597C137.475 96.8589 134.591 102.458 131.457 107.932ZM144.954 102.5C147.211 108.099 149.133 113.699 150.721 119.131C145.247 120.468 139.48 121.596 133.505 122.473C135.552 119.256 137.6 115.955 139.522 112.57C141.444 109.227 143.241 105.843 144.954 102.5ZM102.584 147.085C98.6975 143.074 94.8115 138.603 90.9672 133.714C94.7279 133.881 98.5722 134.006 102.458 134.006C106.386 134.006 110.272 133.923 114.075 133.714C110.314 138.603 106.428 143.074 102.584 147.085ZM71.4951 122.473C65.5616 121.596 59.8369 120.51 54.363 119.172C55.9091 113.782 57.8312 108.225 60.0041 102.667C61.7173 106.01 63.5141 109.353 65.478 112.696C67.4419 116.039 69.4476 119.298 71.4951 122.473ZM102.375 35.5177C106.261 39.5291 110.147 44.0002 113.991 48.8891C110.23 48.722 106.386 48.5966 102.5 48.5966C98.5722 48.5966 94.6861 48.6802 90.8836 48.8891C94.6443 44.0002 98.5304 39.5291 102.375 35.5177ZM71.4533 60.1294C69.4058 63.3469 67.3583 66.648 65.4362 70.0326C63.5141 73.3755 61.7173 76.7183 60.0041 80.0611C57.7477 74.4619 55.8255 68.8626 54.2377 63.4305C59.7116 62.1351 65.478 61.0069 71.4533 60.1294ZM33.6374 112.445C18.8453 106.135 9.2764 97.8618 9.2764 91.3015C9.2764 84.7411 18.8453 76.4258 33.6374 70.158C37.2309 68.6119 41.1588 67.233 45.212 65.9376C47.5938 74.1276 50.7277 82.6519 54.6137 91.385C50.7695 100.076 47.6773 108.559 45.3374 116.707C41.2006 115.412 37.2727 113.991 33.6374 112.445ZM56.118 172.157C50.4352 168.897 47.9698 156.487 49.892 140.525C50.3516 136.597 51.1038 132.46 52.023 128.24C60.213 130.246 69.1551 131.792 78.5569 132.795C84.1979 140.525 90.0479 147.545 95.9397 153.687C82.3176 166.348 69.5312 173.285 60.8398 173.285C58.9594 173.243 57.3716 172.867 56.118 172.157ZM155.233 140.316C157.197 156.278 154.774 168.688 149.133 171.989C147.879 172.742 146.249 173.076 144.327 173.076C135.678 173.076 122.85 166.181 109.227 153.604C115.077 147.461 120.927 140.483 126.485 132.753C135.928 131.75 144.871 130.204 153.061 128.156C154.022 132.377 154.774 136.43 155.233 140.316ZM171.321 112.445C167.727 113.991 163.799 115.37 159.746 116.665C157.364 108.475 154.231 99.9511 150.344 91.2179C154.189 82.5265 157.281 74.044 159.621 65.8958C163.758 67.1912 167.685 68.6119 171.363 70.158C186.155 76.4676 195.724 84.7411 195.724 91.3015C195.682 97.8618 186.113 106.177 171.321 112.445Z" fill="#61DAFB"/>
<path id="Vector_2" d="M101.096 110.192C111.642 110.192 120.192 101.642 120.192 91.096C120.192 80.5496 111.642 72 101.096 72C90.5496 72 82 80.5496 82 91.096C82 101.642 90.5496 110.192 101.096 110.192Z" fill="#61DAFB"/>
</g>
</g>
</svg>
