<svg width="195" height="146" viewBox="0 0 195 146" fill="none" xmlns="http://www.w3.org/2000/svg">
<g id="Group">
<path id="Vector" d="M167.637 83.9297C160.845 83.9653 154.942 85.601 149.999 88.019C148.186 84.4275 146.372 81.2272 146.052 78.8803C145.696 76.1422 145.27 74.4709 145.696 71.1994C146.123 67.9279 148.043 63.2697 148.008 62.9141C147.972 62.5585 147.581 60.8872 143.67 60.8516C139.758 60.8161 136.38 61.5984 135.989 62.6296C135.598 63.6608 134.851 66.0077 134.353 68.4258C133.677 71.9817 126.53 84.6765 122.441 91.3261C121.125 88.7302 119.987 86.4544 119.738 84.6409C119.382 81.9028 118.956 80.2315 119.382 76.96C119.809 73.6886 121.729 69.0303 121.694 68.6747C121.658 68.3191 121.267 66.6478 117.356 66.6122C113.444 66.5767 110.066 67.359 109.675 68.3902C109.284 69.4214 108.857 71.8395 108.039 74.1864C107.221 76.5333 97.7267 97.7268 95.2375 103.203C93.9574 106.012 92.8551 108.252 92.0728 109.781C92.0728 109.781 92.0372 109.888 91.9305 110.066C91.2549 111.382 90.8637 112.093 90.8637 112.093C90.8637 112.093 90.8637 112.093 90.8637 112.128C90.3303 113.088 89.7614 113.977 89.4769 113.977C89.2636 113.977 88.8724 111.417 89.548 107.932C90.9704 100.572 94.3486 89.1214 94.313 88.7302C94.313 88.5169 94.9531 86.5255 92.1083 85.4943C89.3347 84.4631 88.339 86.1699 88.0901 86.1699C87.8412 86.1699 87.6634 86.7745 87.6634 86.7745C87.6634 86.7745 90.7571 73.9019 81.7605 73.9019C76.1421 73.9019 68.3902 80.0537 64.5497 85.601C62.1317 86.9167 56.9756 89.7259 51.4639 92.7484C49.3658 93.9219 47.1967 95.0954 45.1698 96.1977C45.0276 96.0555 44.8854 95.8777 44.7431 95.7354C33.8619 84.1075 13.7353 75.8933 14.5887 60.2827C14.9087 54.5931 16.8645 39.6582 53.2418 21.5229C83.1829 6.76568 107.008 10.855 111.133 19.9227C117.035 32.8663 98.3668 56.9045 67.43 60.3893C55.6243 61.705 49.437 57.1534 47.8724 55.4466C46.2366 53.6686 45.9877 53.5619 45.3832 53.9175C44.3875 54.4509 45.0276 56.0511 45.3832 56.9756C46.3077 59.3937 50.1126 63.6608 56.5489 65.7588C62.2384 67.6079 76.071 68.6391 92.8195 62.1673C111.559 54.9132 126.21 34.751 121.907 17.8602C117.604 0.720569 89.1569 -4.93339 62.2384 4.63211C46.2366 10.3216 28.8836 19.2826 16.4022 30.9461C1.57394 44.8143 -0.772985 56.8689 0.187121 61.9184C3.63639 79.8404 28.3502 91.5039 38.2357 100.145C37.7379 100.429 37.2756 100.678 36.8845 100.892C31.9417 103.345 13.0952 113.195 8.40136 123.614C3.06744 135.42 9.25478 143.883 13.3441 145.021C26.0388 148.541 39.0892 142.212 46.0944 131.757C53.0996 121.303 52.2462 107.719 49.0103 101.496C48.9747 101.425 48.9391 101.354 48.868 101.283C50.1482 100.536 51.4639 99.7537 52.744 99.0069C55.2687 97.5134 57.7579 96.1266 59.8914 94.9887C58.6824 98.2957 57.7934 102.243 57.3667 107.932C56.8333 114.618 59.5714 123.294 63.1629 126.708C64.7631 128.201 66.6477 128.237 67.8568 128.237C72.0528 128.237 73.9374 124.752 76.0354 120.627C78.5957 115.578 80.9071 109.71 80.9071 109.71C80.9071 109.71 78.0268 125.57 85.8499 125.57C88.6946 125.57 91.5749 121.872 92.8551 119.987V120.023C92.8551 120.023 92.9262 119.916 93.0684 119.667C93.3529 119.205 93.5307 118.92 93.5307 118.92V118.849C94.6686 116.858 97.2289 112.342 101.034 104.839C105.941 95.1665 110.67 83.0763 110.67 83.0763C110.67 83.0763 111.097 86.0277 112.555 90.9349C113.408 93.8152 115.186 96.98 116.609 100.038C115.471 101.638 114.76 102.527 114.76 102.527C114.76 102.527 114.76 102.527 114.795 102.563C113.871 103.772 112.875 105.088 111.773 106.368C107.897 110.99 103.274 116.289 102.634 117.818C101.887 119.631 102.065 120.947 103.487 122.014C104.519 122.796 106.368 122.903 108.252 122.796C111.737 122.547 114.191 121.694 115.4 121.16C117.284 120.485 119.489 119.454 121.552 117.925C125.356 115.115 127.668 111.097 127.454 105.799C127.348 102.883 126.388 99.967 125.214 97.2289C125.57 96.7311 125.89 96.2333 126.245 95.7354C132.255 86.9523 136.913 77.3156 136.913 77.3156C136.913 77.3156 137.34 80.2671 138.798 85.1743C139.509 87.6634 140.967 90.366 142.247 92.9974C136.593 97.5845 133.108 102.918 131.864 106.403C129.624 112.875 131.366 115.791 134.673 116.467C136.166 116.787 138.3 116.075 139.865 115.4C141.856 114.76 144.203 113.657 146.443 112.022C150.248 109.212 153.911 105.301 153.697 100.003C153.591 97.5845 152.951 95.202 152.062 92.8907C156.862 90.8994 163.049 89.797 170.944 90.7216C187.87 92.7129 191.213 103.274 190.572 107.719C189.932 112.164 186.376 114.582 185.203 115.329C184.03 116.075 183.638 116.324 183.745 116.858C183.887 117.64 184.456 117.604 185.452 117.462C186.839 117.213 194.342 113.871 194.662 105.692C195.195 95.2376 185.239 83.823 167.637 83.9297ZM37.0623 127.952C31.4439 134.069 23.6208 136.38 20.2427 134.424C16.6156 132.326 18.038 123.294 24.9365 116.822C29.1325 112.875 34.5376 109.212 38.1291 106.972C38.9469 106.474 40.1559 105.763 41.6139 104.874C41.8628 104.732 42.005 104.661 42.005 104.661C42.2895 104.483 42.574 104.305 42.8585 104.127C45.3832 113.373 42.9651 121.516 37.0623 127.952ZM77.9557 100.145C75.9999 104.91 71.9105 117.107 69.4214 116.431C67.2878 115.862 65.9721 106.617 68.9947 97.4779C70.5237 92.8907 73.7596 87.4145 75.6443 85.281C78.7024 81.8672 82.0806 80.7293 82.8984 82.1162C83.9296 83.9297 79.1647 97.1578 77.9557 100.145ZM111.702 116.289C110.884 116.716 110.101 117 109.746 116.787C109.497 116.644 110.101 116.075 110.101 116.075C110.101 116.075 114.333 111.524 116.004 109.461C116.964 108.252 118.102 106.83 119.311 105.23V105.692C119.311 111.133 114.049 114.795 111.702 116.289ZM137.731 110.35C137.127 109.924 137.233 108.501 139.26 104.056C140.042 102.314 141.892 99.3981 145.056 96.5889C145.412 97.7268 145.661 98.8291 145.625 99.8603C145.59 106.723 140.683 109.284 137.731 110.35Z" fill="#CD6799"/>
</g>
</svg>
