<svg width="152" height="182" viewBox="0 0 152 182" fill="none" xmlns="http://www.w3.org/2000/svg">
<g id="Group 5">
<path id="Vector" d="M22.75 79.625V106.167H30.3333C37.8408 106.167 44.5142 109.883 48.685 115.57C54.7517 109.807 62.9417 106.167 72.0417 106.167H79.625C88.725 106.167 96.915 109.807 102.982 115.57C107.152 109.883 113.826 106.167 121.333 106.167C123.987 106.167 126.566 106.622 128.917 107.532V79.625H22.75Z" fill="#FFC107"/>
<path id="Vector_2" d="M75.8333 98.5833C70.3961 98.5833 22.75 98.0525 22.75 79.625V49.2917H128.917V79.625C128.917 98.0525 81.2706 98.5833 75.8333 98.5833Z" fill="#FFD54F"/>
<path id="Vector_3" d="M75.8333 68.25C70.3961 68.25 22.75 67.7192 22.75 49.2917V18.9583H128.917V49.2917C128.917 67.7192 81.2706 68.25 75.8333 68.25Z" fill="#FFC107"/>
<path id="Vector_4" d="M75.8333 37.9167C70.3961 37.9167 22.75 37.3859 22.75 18.9584C22.75 0.530863 70.3961 3.05176e-05 75.8333 3.05176e-05C81.2706 3.05176e-05 128.917 0.530863 128.917 18.9584C128.917 37.3859 81.2706 37.9167 75.8333 37.9167Z" fill="#FFD54F"/>
<path id="Vector_5" d="M22.75 79.625V106.167H30.3333C37.8408 106.167 44.5142 109.883 48.685 115.57C54.7517 109.807 62.9417 106.167 72.0417 106.167H75.8333V98.5834C70.3961 98.5834 22.75 98.0525 22.75 79.625Z" fill="#DEA806"/>
<path id="Vector_6" d="M22.75 49.2917V79.625C22.75 98.0525 70.3961 98.5833 75.8333 98.5833V68.25C70.3961 68.25 22.75 67.7192 22.75 49.2917Z" fill="#DEB945"/>
<path id="Vector_7" d="M22.75 18.9583V49.2917C22.75 67.7192 70.3961 68.25 75.8333 68.25V37.9167C70.3961 37.9167 22.75 37.3858 22.75 18.9583Z" fill="#DEA806"/>
<path id="Vector_8" d="M75.8333 3.05176e-05C70.3961 3.05176e-05 22.75 0.530863 22.75 18.9584C22.75 37.3859 70.3961 37.9167 75.8333 37.9167V3.05176e-05Z" fill="#DEB945"/>
<g id="Group">
<path id="Vector_9" d="M98.5833 140.292C98.5833 129.842 90.0824 121.333 79.625 121.333H72.0416C61.5842 121.333 53.0833 129.842 53.0833 140.292V163.042C53.0833 173.492 61.5842 182 72.0416 182H79.625C82.173 182 84.5996 181.477 86.8216 180.567C88.0956 181.431 89.5212 182 91 182C92.9413 182 94.8826 181.257 96.3614 179.778C98.9776 177.162 99.1445 173.188 97.1501 170.238C98.0676 168.016 98.5833 165.59 98.5833 163.042V140.292ZM68.25 163.042V140.292C68.25 138.199 69.9562 136.5 72.0416 136.5H79.625C81.7104 136.5 83.4166 138.199 83.4166 140.292V156.634C80.5046 154.92 76.7585 155.178 74.2636 157.68C71.7686 160.183 71.5032 163.929 73.2171 166.833H72.0416C69.9562 166.833 68.25 165.135 68.25 163.042V163.042Z" fill="#2196F3"/>
<path id="Vector_10" d="M144.083 182H121.333C117.14 182 113.75 178.603 113.75 174.417V128.917C113.75 124.731 117.14 121.333 121.333 121.333C125.527 121.333 128.917 124.731 128.917 128.917V166.833H144.083C148.277 166.833 151.667 170.231 151.667 174.417C151.667 178.603 148.277 182 144.083 182Z" fill="#2196F3"/>
<path id="Vector_11" d="M18.9583 182H7.58333C3.38975 182 0 178.603 0 174.417C0 170.231 3.38975 166.833 7.58333 166.833H18.9583C21.0438 166.833 22.75 165.135 22.75 163.042C22.75 160.949 21.0438 159.25 18.9583 159.25C8.50092 159.25 0 150.742 0 140.292C0 129.842 8.50092 121.333 18.9583 121.333H30.3333C34.5269 121.333 37.9167 124.731 37.9167 128.917C37.9167 133.103 34.5269 136.5 30.3333 136.5H18.9583C16.8729 136.5 15.1667 138.199 15.1667 140.292C15.1667 142.385 16.8729 144.083 18.9583 144.083C29.4158 144.083 37.9167 152.592 37.9167 163.042C37.9167 173.492 29.4158 182 18.9583 182Z" fill="#2196F3"/>
</g>
<path id="Vector_12" d="M98.5833 152.144H83.4166V156.641C82.1881 155.921 80.808 155.542 79.4354 155.542C77.5623 155.542 75.7044 156.239 74.256 157.68C71.7611 160.183 71.4956 163.929 73.2095 166.833H72.0416C69.9562 166.833 68.25 165.135 68.25 163.042V152.144H53.0833V163.042C53.0833 173.492 61.5842 182 72.0416 182H79.625C82.173 182 84.5996 181.477 86.8216 180.567C88.0956 181.431 89.5212 182 91 182C92.9413 182 94.8826 181.257 96.3614 179.778C98.9776 177.162 99.1445 173.188 97.1501 170.238C98.0676 168.016 98.5833 165.59 98.5833 163.042V152.144Z" fill="#1D83D4"/>
<path id="Vector_13" d="M128.917 152.144H113.75V174.417C113.75 178.603 117.14 182 121.333 182H144.083C148.277 182 151.667 178.603 151.667 174.417C151.667 170.231 148.277 166.833 144.083 166.833H128.917V152.144Z" fill="#1D83D4"/>
<path id="Vector_14" d="M34.4587 152.144H4.17083C7.644 156.475 12.9827 159.25 18.9583 159.25C21.0438 159.25 22.75 160.949 22.75 163.042C22.75 165.135 21.0438 166.833 18.9583 166.833H7.58333C3.38975 166.833 0 170.231 0 174.417C0 178.603 3.38975 182 7.58333 182H18.9583C29.4158 182 37.9167 173.492 37.9167 163.042C37.9167 158.985 36.6351 155.223 34.4587 152.144V152.144Z" fill="#1D83D4"/>
</g>
</svg>
